<svg width="64" height="64" viewBox="0 0 64 64" fill="none" xmlns="http://www.w3.org/2000/svg">
  <rect width="64" height="64" rx="16" fill="#FFF8E1"/>
  <ellipse cx="32" cy="48" rx="18" ry="6" fill="#FFD54F"/>
  <rect x="18" y="32" width="28" height="14" rx="3" fill="#B3E5FC" stroke="#0288D1" stroke-width="2"/>
  <rect x="24" y="36" width="16" height="6" rx="1.5" fill="#FFF"/>
  <rect x="28" y="38" width="8" height="2" rx="1" fill="#0288D1"/>
  <ellipse cx="32" cy="30" rx="10" ry="7" fill="#FFCCBC"/>
  <ellipse cx="32" cy="28" rx="8" ry="5" fill="#FFAB91"/>
  <ellipse cx="32" cy="26" rx="6" ry="3" fill="#FF7043"/>
  <circle cx="26" cy="24" r="2" fill="#6D4C41"/>
  <circle cx="38" cy="24" r="2" fill="#6D4C41"/>
  <path d="M28 28 Q32 32 36 28" stroke="#6D4C41" stroke-width="1.5" fill="none"/>
  <rect x="20" y="46" width="24" height="4" rx="2" fill="#0288D1"/>
  <rect x="22" y="50" width="20" height="2" rx="1" fill="#B3E5FC"/>
  <rect x="30" y="52" width="4" height="2" rx="1" fill="#0288D1"/>
  <rect x="34" y="52" width="4" height="2" rx="1" fill="#0288D1"/>
  <rect x="28" y="54" width="8" height="2" rx="1" fill="#B3E5FC"/>
</svg>
